<?xml version="1.0" encoding="UTF-8" standalone="no"?>
<!DOCTYPE svg PUBLIC "-//W3C//DTD SVG 1.1//EN" "http://www.w3.org/Graphics/SVG/1.1/DTD/svg11.dtd">
<svg width="100%" height="100%" viewBox="0 0 895 195" version="1.1" xmlns="http://www.w3.org/2000/svg" xmlns:xlink="http://www.w3.org/1999/xlink" xml:space="preserve" xmlns:serif="http://www.serif.com/" style="fill-rule:evenodd;clip-rule:evenodd;stroke-linecap:round;stroke-linejoin:round;stroke-miterlimit:1.5;">
    <g transform="matrix(1,0,0,1,0,-516)">
        <g id="Artboard2" transform="matrix(0.846941,0,0,1,0,-0.000840814)">
            <rect x="0" y="516.001" width="1056.14" height="194.737" style="fill:none;"/>
            <g transform="matrix(0.664936,0,0,0.563162,-3.57411,455.72)">
                <path d="M400,140C440.511,163.1 480.983,186.467 521.244,210C521.494,256.633 521.494,303.367 521.244,350C480.983,373.533 440.511,396.9 400,420C359.489,396.9 319.017,373.533 278.756,350C278.506,303.367 278.506,256.633 278.756,210C319.017,186.467 359.489,163.1 400,140Z" style="fill:none;stroke:rgb(196,201,230);stroke-width:15.39px;"/>
            </g>
            <g transform="matrix(0.664936,0,0,0.563162,-84.3181,455.72)">
                <path d="M400,140C440.511,163.1 480.983,186.467 521.244,210C521.494,256.633 521.494,303.367 521.244,350C480.983,373.533 440.511,396.9 400,420C359.489,396.9 319.017,373.533 278.756,350C278.506,303.367 278.506,256.633 278.756,210C319.017,186.467 359.489,163.1 400,140Z" style="fill:rgb(196,201,230);stroke:rgb(109,132,188);stroke-width:1.78px;"/>
            </g>
            <g transform="matrix(0.664936,0,0,0.563162,-164.11,455.72)">
                <path d="M400,140C440.511,163.1 480.983,186.467 521.244,210C521.494,256.633 521.494,303.367 521.244,350C480.983,373.533 440.511,396.9 400,420C359.489,396.9 319.017,373.533 278.756,350C278.506,303.367 278.506,256.633 278.756,210C319.017,186.467 359.489,163.1 400,140Z" style="fill:rgb(109,132,188);"/>
            </g>
            <g transform="matrix(8.229,0,0,6.96948,-6330.55,-1933.51)">
                <g transform="matrix(15,0,0,15,801.123,371.124)">
                    <path d="M0.035,-0.217C0.035,-0.267 0.041,-0.311 0.051,-0.347C0.063,-0.385 0.078,-0.415 0.098,-0.44C0.118,-0.464 0.141,-0.482 0.169,-0.494C0.196,-0.506 0.225,-0.512 0.257,-0.512C0.278,-0.512 0.295,-0.51 0.309,-0.506C0.322,-0.503 0.337,-0.501 0.354,-0.501C0.361,-0.501 0.368,-0.502 0.375,-0.503C0.382,-0.504 0.392,-0.507 0.405,-0.511L0.416,-0.317L0.318,-0.304C0.319,-0.311 0.319,-0.317 0.32,-0.323C0.32,-0.328 0.32,-0.334 0.32,-0.341C0.32,-0.378 0.314,-0.404 0.301,-0.42C0.288,-0.435 0.274,-0.443 0.259,-0.443C0.227,-0.443 0.203,-0.426 0.188,-0.393C0.173,-0.36 0.165,-0.311 0.165,-0.246C0.165,-0.191 0.174,-0.152 0.192,-0.128C0.209,-0.104 0.235,-0.092 0.269,-0.092C0.292,-0.092 0.316,-0.096 0.339,-0.105C0.362,-0.113 0.382,-0.121 0.399,-0.128L0.399,-0.04C0.378,-0.021 0.352,-0.007 0.323,0C0.293,0.008 0.263,0.012 0.232,0.012C0.207,0.012 0.183,0.009 0.16,0.003C0.136,-0.003 0.115,-0.014 0.097,-0.031C0.078,-0.047 0.063,-0.07 0.052,-0.1C0.041,-0.13 0.035,-0.169 0.035,-0.217Z" style="fill:rgb(89,71,87);fill-rule:nonzero;"/>
                </g>
                <g transform="matrix(15,0,0,15,807.873,371.124)">
                    <path d="M0.398,0.012C0.385,-0.007 0.374,-0.024 0.366,-0.038C0.358,-0.052 0.352,-0.067 0.348,-0.082C0.338,-0.071 0.327,-0.059 0.316,-0.049C0.305,-0.038 0.292,-0.028 0.279,-0.019C0.265,-0.01 0.25,-0.002 0.235,0.003C0.22,0.009 0.203,0.012 0.185,0.012C0.168,0.012 0.152,0.009 0.137,0.003C0.121,-0.003 0.107,-0.013 0.095,-0.027C0.083,-0.041 0.073,-0.06 0.066,-0.084C0.059,-0.108 0.055,-0.138 0.055,-0.174C0.055,-0.183 0.055,-0.196 0.056,-0.215C0.056,-0.233 0.056,-0.252 0.057,-0.273C0.058,-0.293 0.058,-0.312 0.059,-0.331C0.059,-0.35 0.059,-0.364 0.059,-0.374C0.059,-0.396 0.058,-0.417 0.055,-0.438C0.051,-0.458 0.046,-0.475 0.039,-0.488L0.176,-0.512C0.181,-0.497 0.184,-0.48 0.185,-0.462C0.186,-0.444 0.186,-0.428 0.186,-0.415C0.186,-0.396 0.186,-0.376 0.185,-0.357C0.184,-0.338 0.183,-0.319 0.182,-0.301C0.181,-0.282 0.18,-0.265 0.179,-0.249C0.178,-0.232 0.177,-0.218 0.177,-0.206C0.177,-0.167 0.184,-0.14 0.197,-0.125C0.21,-0.11 0.229,-0.103 0.252,-0.103C0.271,-0.103 0.288,-0.106 0.302,-0.113C0.316,-0.12 0.329,-0.128 0.34,-0.137C0.339,-0.149 0.339,-0.163 0.339,-0.178L0.339,-0.312C0.339,-0.337 0.339,-0.36 0.339,-0.381C0.338,-0.402 0.338,-0.423 0.338,-0.442C0.337,-0.461 0.337,-0.48 0.336,-0.5L0.471,-0.5C0.47,-0.484 0.47,-0.466 0.469,-0.446C0.468,-0.426 0.468,-0.405 0.467,-0.383C0.466,-0.36 0.465,-0.337 0.464,-0.314C0.463,-0.29 0.463,-0.267 0.463,-0.245C0.463,-0.219 0.464,-0.198 0.465,-0.182C0.466,-0.165 0.469,-0.151 0.473,-0.139C0.477,-0.126 0.482,-0.115 0.489,-0.105C0.496,-0.094 0.504,-0.082 0.515,-0.069L0.398,0.012Z" style="fill:rgb(89,71,87);fill-rule:nonzero;"/>
                </g>
                <g transform="matrix(15,0,0,15,815.883,371.124)">
                    <path d="M0.199,-0.77C0.197,-0.749 0.196,-0.727 0.195,-0.704C0.194,-0.681 0.193,-0.656 0.193,-0.628C0.192,-0.602 0.192,-0.572 0.192,-0.539C0.191,-0.506 0.191,-0.47 0.191,-0.43C0.211,-0.45 0.235,-0.469 0.262,-0.486C0.289,-0.503 0.32,-0.512 0.353,-0.512C0.369,-0.512 0.385,-0.509 0.401,-0.503C0.416,-0.497 0.43,-0.486 0.442,-0.47C0.454,-0.454 0.464,-0.432 0.471,-0.405C0.478,-0.378 0.482,-0.343 0.482,-0.3C0.482,-0.248 0.477,-0.203 0.467,-0.164C0.456,-0.125 0.442,-0.092 0.423,-0.066C0.404,-0.04 0.381,-0.021 0.355,-0.008C0.329,0.005 0.3,0.012 0.268,0.012C0.239,0.012 0.214,0.006 0.193,-0.006C0.172,-0.017 0.154,-0.033 0.138,-0.052L0.101,-0L0.048,-0C0.056,-0.031 0.061,-0.079 0.064,-0.146C0.066,-0.213 0.067,-0.302 0.067,-0.414C0.067,-0.471 0.067,-0.528 0.066,-0.585C0.065,-0.642 0.064,-0.7 0.062,-0.76L0.199,-0.77ZM0.285,-0.397C0.266,-0.397 0.248,-0.394 0.233,-0.389C0.217,-0.383 0.203,-0.376 0.191,-0.368L0.191,-0.221C0.191,-0.179 0.191,-0.14 0.192,-0.103C0.209,-0.073 0.232,-0.058 0.262,-0.058C0.291,-0.058 0.314,-0.076 0.33,-0.111C0.345,-0.146 0.353,-0.199 0.353,-0.268C0.353,-0.295 0.351,-0.317 0.348,-0.334C0.345,-0.351 0.34,-0.364 0.334,-0.373C0.328,-0.382 0.321,-0.389 0.313,-0.392C0.304,-0.395 0.295,-0.397 0.285,-0.397Z" style="fill:rgb(89,71,87);fill-rule:nonzero;"/>
                </g>
                <g transform="matrix(15,0,0,15,823.653,371.124)">
                    <path d="M0.165,-0.226C0.168,-0.175 0.179,-0.14 0.196,-0.119C0.213,-0.099 0.24,-0.089 0.275,-0.089C0.302,-0.089 0.327,-0.093 0.35,-0.101C0.374,-0.109 0.394,-0.116 0.409,-0.123L0.409,-0.04C0.388,-0.021 0.361,-0.007 0.329,0C0.297,0.008 0.266,0.012 0.236,0.012C0.211,0.012 0.187,0.009 0.163,0.003C0.139,-0.003 0.117,-0.015 0.099,-0.032C0.08,-0.049 0.064,-0.072 0.053,-0.102C0.041,-0.133 0.035,-0.173 0.035,-0.222C0.035,-0.271 0.041,-0.313 0.053,-0.349C0.065,-0.386 0.082,-0.416 0.102,-0.44C0.124,-0.464 0.148,-0.482 0.177,-0.494C0.205,-0.506 0.236,-0.512 0.269,-0.512C0.303,-0.512 0.331,-0.506 0.353,-0.495C0.374,-0.483 0.391,-0.468 0.404,-0.45C0.416,-0.432 0.424,-0.412 0.429,-0.39C0.433,-0.368 0.435,-0.347 0.435,-0.326C0.435,-0.305 0.434,-0.285 0.431,-0.268C0.428,-0.251 0.424,-0.237 0.419,-0.226L0.165,-0.226ZM0.251,-0.439C0.225,-0.439 0.205,-0.428 0.191,-0.406C0.176,-0.383 0.168,-0.348 0.165,-0.3L0.33,-0.3L0.331,-0.321C0.331,-0.332 0.33,-0.344 0.328,-0.358C0.326,-0.371 0.322,-0.384 0.316,-0.396C0.31,-0.408 0.302,-0.418 0.292,-0.427C0.281,-0.435 0.268,-0.439 0.251,-0.439Z" style="fill:rgb(89,71,87);fill-rule:nonzero;"/>
                </g>
                <g transform="matrix(15,0,0,15,830.643,371.124)">
                    <path d="M0.138,-0.518C0.152,-0.496 0.163,-0.477 0.171,-0.461C0.179,-0.444 0.185,-0.427 0.188,-0.409C0.195,-0.419 0.203,-0.43 0.213,-0.442C0.223,-0.453 0.234,-0.464 0.247,-0.474C0.26,-0.485 0.274,-0.494 0.289,-0.502C0.304,-0.51 0.321,-0.515 0.338,-0.518L0.347,-0.376C0.314,-0.376 0.284,-0.373 0.256,-0.368C0.228,-0.362 0.208,-0.352 0.196,-0.339C0.197,-0.326 0.197,-0.313 0.197,-0.298L0.197,-0.247C0.197,-0.226 0.197,-0.203 0.198,-0.179C0.199,-0.154 0.2,-0.131 0.201,-0.109C0.202,-0.086 0.203,-0.065 0.204,-0.046C0.205,-0.027 0.207,-0.011 0.208,-0L0.067,-0C0.068,-0.014 0.068,-0.03 0.069,-0.049C0.07,-0.068 0.07,-0.087 0.071,-0.107C0.072,-0.127 0.072,-0.148 0.073,-0.169C0.073,-0.19 0.073,-0.21 0.073,-0.229C0.073,-0.26 0.072,-0.285 0.071,-0.305C0.07,-0.324 0.067,-0.341 0.063,-0.356C0.059,-0.37 0.054,-0.383 0.047,-0.395C0.04,-0.407 0.032,-0.421 0.021,-0.437L0.138,-0.518Z" style="fill:rgb(89,71,87);fill-rule:nonzero;"/>
                </g>
                <g transform="matrix(15,0,0,15,835.983,371.124)">
                    <path d="M0.165,0.012C0.123,0.012 0.089,-0.002 0.064,-0.031C0.038,-0.06 0.025,-0.097 0.025,-0.143C0.025,-0.191 0.039,-0.229 0.067,-0.258C0.095,-0.287 0.132,-0.301 0.179,-0.301C0.198,-0.301 0.218,-0.298 0.237,-0.293C0.256,-0.288 0.274,-0.28 0.289,-0.27L0.289,-0.326C0.289,-0.357 0.283,-0.379 0.271,-0.392C0.259,-0.405 0.238,-0.411 0.209,-0.411C0.189,-0.411 0.168,-0.408 0.146,-0.404C0.123,-0.399 0.105,-0.392 0.092,-0.385L0.061,-0.481C0.071,-0.485 0.083,-0.489 0.097,-0.493C0.111,-0.497 0.126,-0.5 0.142,-0.503C0.158,-0.506 0.174,-0.508 0.191,-0.509C0.208,-0.511 0.223,-0.512 0.237,-0.512C0.354,-0.512 0.413,-0.455 0.413,-0.34C0.413,-0.33 0.412,-0.315 0.411,-0.296C0.41,-0.277 0.409,-0.257 0.408,-0.235C0.407,-0.215 0.406,-0.195 0.406,-0.177C0.405,-0.159 0.404,-0.146 0.404,-0.139C0.404,-0.124 0.406,-0.113 0.411,-0.106C0.416,-0.099 0.424,-0.096 0.437,-0.096C0.446,-0.096 0.456,-0.097 0.467,-0.1L0.451,-0.004C0.44,-0.001 0.431,0.002 0.422,0.004C0.412,0.006 0.403,0.007 0.394,0.007C0.369,0.007 0.349,0 0.332,-0.014C0.315,-0.027 0.305,-0.047 0.302,-0.072C0.289,-0.046 0.27,-0.025 0.246,-0.011C0.222,0.004 0.195,0.012 0.165,0.012ZM0.213,-0.08C0.234,-0.08 0.253,-0.088 0.268,-0.103C0.282,-0.118 0.29,-0.138 0.29,-0.161C0.29,-0.181 0.284,-0.197 0.272,-0.209C0.26,-0.221 0.243,-0.227 0.222,-0.227C0.2,-0.227 0.183,-0.22 0.17,-0.207C0.157,-0.194 0.151,-0.175 0.151,-0.152C0.151,-0.13 0.157,-0.113 0.168,-0.1C0.179,-0.086 0.194,-0.08 0.213,-0.08Z" style="fill:rgb(89,71,87);fill-rule:nonzero;"/>
                </g>
                <g transform="matrix(0.080804,0,0,0.080804,756.696,344.43)">
                    <path d="M1107.45,237.538C1107.08,240.385 1106.8,243.107 1106.61,245.706C1106.43,248.305 1106.31,251.182 1106.24,254.338C1106.18,257.494 1106.12,261.145 1106.06,265.291C1106,269.436 1105.96,274.356 1105.96,280.049L1105.96,295.456C1105.96,300.035 1106,304.305 1106.06,308.265C1106.12,312.225 1106.18,315.969 1106.24,319.496C1106.31,323.023 1106.4,326.643 1106.52,330.355L1081.46,330.355C1081.59,325.776 1081.74,321.754 1081.92,318.289C1082.11,314.824 1082.27,311.142 1082.39,307.244C1082.51,303.346 1082.64,298.952 1082.76,294.064C1082.88,289.176 1082.95,283.081 1082.95,275.779C1082.95,269.096 1082.88,262.815 1082.76,256.937C1082.64,251.059 1082.39,244.592 1082.02,237.538L1107.45,237.538Z" style="fill:rgb(89,71,87);fill-rule:nonzero;"/>
                </g>
                <g transform="matrix(15,0,0,15,847.023,371.124)">
                    <path d="M0.197,-0.77C0.195,-0.747 0.194,-0.723 0.193,-0.698C0.192,-0.673 0.191,-0.646 0.191,-0.617C0.19,-0.587 0.19,-0.554 0.19,-0.517C0.189,-0.48 0.189,-0.438 0.189,-0.391L0.189,-0.272C0.189,-0.236 0.189,-0.203 0.19,-0.172C0.19,-0.141 0.19,-0.112 0.191,-0.085C0.191,-0.057 0.191,-0.029 0.192,-0L0.057,-0C0.058,-0.035 0.059,-0.065 0.059,-0.092C0.061,-0.119 0.061,-0.147 0.062,-0.175C0.063,-0.204 0.063,-0.237 0.064,-0.275C0.065,-0.312 0.065,-0.358 0.065,-0.414C0.065,-0.471 0.065,-0.528 0.064,-0.585C0.063,-0.642 0.062,-0.7 0.06,-0.76L0.197,-0.77Z" style="fill:rgb(89,71,87);fill-rule:nonzero;"/>
                </g>
            </g>
            <g transform="matrix(2.18148,0,0,1.84758,-776.45,-523.206)">
                <text x="662.451px" y="635.832px" style="font-family:'CantoraOne-Regular', 'CantoraOne';font-size:54.669px;fill:rgb(181,131,160);">.games</text>
            </g>
            <g transform="matrix(0.664936,0,0,0.563162,270.265,263.597)">
                <rect x="516.424" y="557.016" width="31.259" height="31.259" style="fill:rgb(109,132,188);stroke:rgb(89,71,87);stroke-width:6.17px;"/>
            </g>
        </g>
    </g>
</svg>
